<svg xmlns="http://www.w3.org/2000/svg" width="91.322" height="59" viewBox="0 0 91.322 59"><g transform="translate(-68.678 -11)"><g transform="translate(7.107 -874.15)"><g transform="translate(62.893 892.15)"><path d="M377.184,915.554h13.283L377.1,937.192s-6.809-8.186-13.182-16.2c-10.6-13.34-3.622-28.752,13.418-28.752l13.059-.085v9.068l-11.171.085" transform="translate(-358.893 -892.15)" fill="none" stroke="#090000" stroke-linecap="round" stroke-miterlimit="10" stroke-width="2.322"/><path d="M381.8,946.535" transform="translate(-359.898 -894.535)" fill="none" stroke="#fff" stroke-miterlimit="10" stroke-width="1.327"/><path d="M390.339,914.767" transform="translate(-360.272 -893.142)" fill="none" stroke="#fff" stroke-linecap="round" stroke-miterlimit="10" stroke-width="2.322"/><circle cx="2.625" cy="2.625" r="2.625" transform="translate(15.666 20.779)"/><rect width="5.302" height="5.302" transform="translate(15.64 6.168)"/></g><path d="M381.369,919.084a4.539,4.539,0,1,1,.015-5.458h1.607a5.911,5.911,0,1,0,.007,5.458Z" transform="translate(-296.568 -0.802)"/></g><text transform="translate(114 29)" font-size="18" font-family="FreightSansProBook-Regular, FreightSans Pro"><tspan x="0" y="0">GDZIE</tspan><tspan x="0" y="17">ZJEŚĆ</tspan><tspan y="17" font-size="17"></tspan><tspan font-size="17" font-family="FreightSansProSemibold-Regular, FreightSans Pro"><tspan x="0" y="34">WEGE</tspan></tspan></text></g></svg>